<?xml version="1.0" encoding="UTF-8" standalone="no" ?>
<!DOCTYPE svg PUBLIC "-//W3C//DTD SVG 1.1//EN" "http://www.w3.org/Graphics/SVG/1.1/DTD/svg11.dtd">
<svg xmlns="http://www.w3.org/2000/svg" xmlns:xlink="http://www.w3.org/1999/xlink" version="1.1" width="1080" height="1080" viewBox="0 0 1080 1080" xml:space="preserve">
<desc>Created with Fabric.js 5.2.4</desc>
<defs>
</defs>
<g transform="matrix(1 0 0 1 540 540)" id="c3e5127f-e65a-48da-98e2-7943c9c51de7"  >
</g>
<g transform="matrix(1 0 0 1 540 540)" id="d2b0e0e8-4c5e-4231-aa61-982b8f15b492"  >
<rect style="stroke: none; stroke-width: 1; stroke-dasharray: none; stroke-linecap: butt; stroke-dashoffset: 0; stroke-linejoin: miter; stroke-miterlimit: 4; fill: rgb(255,255,255); fill-rule: nonzero; opacity: 1; visibility: hidden;" vector-effect="non-scaling-stroke"  x="-540" y="-540" rx="0" ry="0" width="1080" height="1080" />
</g>
<g transform="matrix(4.22 0 0 4.22 540.16 540.16)"  >
<g style=""   >
		<g transform="matrix(1 0 0 1 14.1 -110.34)"  >
<path style="stroke: none; stroke-width: 1; stroke-dasharray: none; stroke-linecap: butt; stroke-dashoffset: 0; stroke-linejoin: miter; stroke-miterlimit: 4; fill: rgb(0,112,172); fill-rule: nonzero; opacity: 1;" vector-effect="non-scaling-stroke"  transform=" translate(-142.1, -17.67)" d="M 124.1 10.3 L 122.39999999999999 10.5 L 122.8 14.1 C 123.2 18.5 124.3 25 124.7 25.299999999999997 C 124.8 25.4 127 24.799999999999997 129.4 23.799999999999997 C 137.3 20.699999999999996 151.1 16.9 159.3 15.699999999999998 L 161.8 15.299999999999997 L 158.10000000000002 14.099999999999998 C 148.4 11.1 132.7 9.3 124.1 10.3 z" stroke-linecap="round" />
</g>
		<g transform="matrix(1 0 0 1 -3.31 1.46)"  >
<path style="stroke: none; stroke-width: 1; stroke-dasharray: none; stroke-linecap: butt; stroke-dashoffset: 0; stroke-linejoin: miter; stroke-miterlimit: 4; fill: rgb(0,112,172); fill-rule: nonzero; opacity: 1;" vector-effect="non-scaling-stroke"  transform=" translate(-124.69, -129.47)" d="M 102.9 14.2 C 99.9 15.1 97.2 16.099999999999998 96.9 16.4 C 96.10000000000001 17.2 95.80000000000001 30.7 96.4 37.5 C 99.2 65.6 109.9 87.9 130.4 108.6 C 140.6 118.8 150.3 126.39999999999999 163.3 134.1 C 170.9 138.6 185.5 145.79999999999998 193.3 148.79999999999998 C 196.60000000000002 150.1 199.8 151.39999999999998 200.4 151.6 C 202.3 152.4 203.9 158.5 203.9 164.7 C 203.9 169.29999999999998 203.70000000000002 170.29999999999998 202.6 172.5 C 200.7 176.5 196.5 180.3 191.6 182.7 C 183.9 186.39999999999998 176.29999999999998 187.89999999999998 160.7 189.1 C 150.39999999999998 189.9 147.5 190.4 124.79999999999998 195.1 C 105.09999999999998 199.2 92.49999999999999 201 70.99999999999999 202.6 C 54.09999999999999 203.9 49.69999999999999 204.7 44.09999999999999 207.4 C 37.499999999999986 210.6 34.39999999999999 215.5 34.39999999999999 222.8 C 34.39999999999999 226.10000000000002 34.69999999999999 227.20000000000002 35.89999999999999 229.8 C 38.49999999999999 235.4 43.79999999999999 239.4 52.29999999999999 242.3 C 62.499999999999986 245.70000000000002 76.79999999999998 247 93.1 246.10000000000002 C 103.19999999999999 245.50000000000003 120.3 243.50000000000003 123.3 242.50000000000003 C 125.89999999999999 241.70000000000002 127.3 239.80000000000004 127.3 237.20000000000002 C 127.3 235.3 127 234.70000000000002 125.6 233.4 C 124 231.9 123.69999999999999 231.9 120.6 232.1 C 118.8 232.2 115 232.7 112.3 233.2 C 85.3 237.39999999999998 59.3 235.6 49.4 228.89999999999998 C 45.3 226.09999999999997 44 221.7 46.5 218.99999999999997 C 49.5 215.79999999999998 54.5 214.79999999999998 77.7 212.89999999999998 C 102.80000000000001 210.79999999999998 113.80000000000001 209.2 135 204.39999999999998 C 148.8 201.29999999999998 153.4 200.49999999999997 163.4 199.89999999999998 C 185.4 198.49999999999997 199.60000000000002 193.39999999999998 207.9 184.09999999999997 C 214.1 177.19999999999996 216.3 167.69999999999996 214.20000000000002 157.49999999999997 C 213.3 152.79999999999998 211.00000000000003 146.79999999999998 209.20000000000002 144.29999999999998 L 207.9 142.39999999999998 L 210.4 137.99999999999997 C 212.9 133.59999999999997 212.9 133.59999999999997 211.8 133.09999999999997 C 206 130.69999999999996 193.8 124.69999999999996 188.10000000000002 121.49999999999997 C 145.60000000000002 97.49999999999997 119.10000000000002 63.99999999999997 112.10000000000002 25.399999999999977 C 111.40000000000002 21.799999999999976 110.70000000000002 17.49999999999998 110.50000000000003 15.699999999999978 C 110.4 11.8 110.5 11.8 102.9 14.2 z" stroke-linecap="round" />
</g>
		<g transform="matrix(1 0 0 1 2.65 -29.1)"  >
<path style="stroke: none; stroke-width: 1; stroke-dasharray: none; stroke-linecap: butt; stroke-dashoffset: 0; stroke-linejoin: miter; stroke-miterlimit: 4; fill: rgb(0,112,172); fill-rule: nonzero; opacity: 1;" vector-effect="non-scaling-stroke"  transform=" translate(-130.66, -98.9)" d="M 78.7 25.5 C 71.60000000000001 30.2 72.10000000000001 29.5 71.10000000000001 36.3 C 69.80000000000001 44.699999999999996 69.80000000000001 62.699999999999996 71.00000000000001 70.3 C 74.10000000000001 89.69999999999999 80.80000000000001 105.6 92.60000000000002 121.3 C 98.20000000000002 128.8 110.60000000000002 141.2 118.40000000000002 147.3 C 131.40000000000003 157.3 147.10000000000002 166.5 162.70000000000002 173.10000000000002 L 167.8 175.3 L 171.5 173.5 C 176.5 171.1 182.8 167.2 187.4 163.8 L 191.20000000000002 161 L 185.70000000000002 158.7 C 173.4 153.7 158.70000000000002 145.79999999999998 147.20000000000002 138 C 134.4 129.3 120.20000000000002 116.5 111.90000000000002 106 C 93.5 83 84.1 56.4 84 27.6 C 84 24.8 83.9 22.5 83.6 22.5 C 83.4 22.5 81.2 23.8 78.7 25.5 z" stroke-linecap="round" />
</g>
		<g transform="matrix(1 0 0 1 37.1 -88.53)"  >
<path style="stroke: none; stroke-width: 1; stroke-dasharray: none; stroke-linecap: butt; stroke-dashoffset: 0; stroke-linejoin: miter; stroke-miterlimit: 4; fill: rgb(0,112,172); fill-rule: nonzero; opacity: 1;" vector-effect="non-scaling-stroke"  transform=" translate(-165.1, -39.47)" d="M 175.1 28.5 C 160.29999999999998 29.8 141.3 34.3 131.5 38.9 L 128.6 40.3 L 130.9 45.699999999999996 C 132.70000000000002 50.099999999999994 133.3 51.099999999999994 134 50.8 C 140.5 48 153.8 44.4 163.8 42.8 C 169.9 41.8 192.10000000000002 41.3 197.60000000000002 42 C 199.70000000000002 42.3 201.50000000000003 42.4 201.60000000000002 42.3 C 201.90000000000003 42 192.10000000000002 32.4 189.10000000000002 30.199999999999996 C 186.40000000000003 28.199999999999996 186.10000000000002 28.099999999999994 183.10000000000002 28.099999999999994 C 181.3 28.1 177.7 28.3 175.1 28.5 z" stroke-linecap="round" />
</g>
		<g transform="matrix(1 0 0 1 -77.41 -69.73)"  >
<path style="stroke: none; stroke-width: 1; stroke-dasharray: none; stroke-linecap: butt; stroke-dashoffset: 0; stroke-linejoin: miter; stroke-miterlimit: 4; fill: rgb(0,112,172); fill-rule: nonzero; opacity: 1;" vector-effect="non-scaling-stroke"  transform=" translate(-50.58, -58.27)" d="M 55 48.1 C 50.4 54.4 42.4 70.8 43 72.6 C 43.1 72.89999999999999 45.1 71.8 47.4 70.19999999999999 C 49.8 68.6 53.1 66.6 54.9 65.6 L 58.199999999999996 63.8 L 58.199999999999996 53.9 C 58.199999999999996 48.4 58.099999999999994 43.9 58.099999999999994 43.9 C 58.1 44 56.7 45.8 55 48.1 z" stroke-linecap="round" />
</g>
		<g transform="matrix(1 0 0 1 52.38 -60.46)"  >
<path style="stroke: none; stroke-width: 1; stroke-dasharray: none; stroke-linecap: butt; stroke-dashoffset: 0; stroke-linejoin: miter; stroke-miterlimit: 4; fill: rgb(0,112,172); fill-rule: nonzero; opacity: 1;" vector-effect="non-scaling-stroke"  transform=" translate(-180.38, -67.55)" d="M 176.1 56.8 C 175.1 56.9 172.2 57.3 169.6 57.5 C 160.2 58.5 141.6 63.2 141.6 64.5 C 141.6 65.1 145.7 70.7 149 74.6 C 150.6 76.39999999999999 152 78.1 152.2 78.3 C 152.29999999999998 78.6 155.2 77.8 158.5 76.7 C 176.2 70.7 196.8 70.10000000000001 215.2 75.2 C 217.2 75.8 219 76.10000000000001 219.1 76 C 219.5 75.6 217.5 69.3 215.4 64.5 C 214.1 61.3 213.3 60.1 212.5 59.9 C 203.7 57.9 197.3 57.1 187.2 56.9 C 182 56.7 177 56.7 176.1 56.8 z" stroke-linecap="round" />
</g>
		<g transform="matrix(1 0 0 1 -76.1 -34.44)"  >
<path style="stroke: none; stroke-width: 1; stroke-dasharray: none; stroke-linecap: butt; stroke-dashoffset: 0; stroke-linejoin: miter; stroke-miterlimit: 4; fill: rgb(0,112,172); fill-rule: nonzero; opacity: 1;" vector-effect="non-scaling-stroke"  transform=" translate(-51.9, -93.56)" d="M 54.9 79.7 C 52.199999999999996 81.4 47.6 84.5 44.7 86.60000000000001 L 39.400000000000006 90.50000000000001 L 39.400000000000006 96.40000000000002 C 39.50000000000001 101.90000000000002 40.10000000000001 109.40000000000002 40.60000000000001 110.00000000000001 C 40.70000000000001 110.10000000000001 42.60000000000001 108.80000000000001 44.80000000000001 107.20000000000002 C 49.30000000000001 103.80000000000001 56.20000000000001 99.10000000000002 61.000000000000014 96.30000000000001 C 62.80000000000001 95.30000000000001 64.30000000000001 94.30000000000001 64.40000000000002 94.30000000000001 C 64.50000000000001 94.20000000000002 63.70000000000002 91.50000000000001 62.80000000000002 88.20000000000002 C 61.90000000000002 84.90000000000002 60.90000000000002 81.20000000000002 60.70000000000002 80.00000000000001 C 60.500000000000014 78.80000000000001 60.20000000000002 77.50000000000001 60.000000000000014 77.20000000000002 C 59.8 76.8 58 77.7 54.9 79.7 z" stroke-linecap="round" />
</g>
		<g transform="matrix(1 0 0 1 65.03 -24.03)"  >
<path style="stroke: none; stroke-width: 1; stroke-dasharray: none; stroke-linecap: butt; stroke-dashoffset: 0; stroke-linejoin: miter; stroke-miterlimit: 4; fill: rgb(0,112,172); fill-rule: nonzero; opacity: 1;" vector-effect="non-scaling-stroke"  transform=" translate(-193.03, -103.96)" d="M 176 86.8 C 171.4 87.6 165.7 88.89999999999999 164.6 89.5 C 163.4 90.2 177.5 100.9 188.1 107.3 C 198.4 113.6 216.9 122.5 217.7 121.7 C 218.39999999999998 121 220.5 112.2 221.1 107.3 C 221.4 104.8 221.6 100.3 221.5 97.3 L 221.4 91.8 L 216.3 90.2 C 206.8 87.10000000000001 202.4 86.4 190.8 86.2 C 183.4 86.1 179.1 86.3 176 86.8 z" stroke-linecap="round" />
</g>
		<g transform="matrix(1 0 0 1 -66.8 -5.34)"  >
<path style="stroke: none; stroke-width: 1; stroke-dasharray: none; stroke-linecap: butt; stroke-dashoffset: 0; stroke-linejoin: miter; stroke-miterlimit: 4; fill: rgb(0,112,172); fill-rule: nonzero; opacity: 1;" vector-effect="non-scaling-stroke"  transform=" translate(-61.2, -122.66)" d="M 64.2 108.3 C 57.1 112.8 44 122.5 44 123.3 C 44 124.6 49.7 136.5 51.9 139.9 C 52.3 140.4 53.699999999999996 139.4 57.9 136.1 C 61 133.7 66.8 129.5 70.9 126.69999999999999 L 78.4 121.69999999999999 L 76 117.79999999999998 C 74.6 115.59999999999998 72.6 111.89999999999998 71.4 109.59999999999998 C 70.2 107.19999999999997 69.10000000000001 105.29999999999998 68.9 105.29999999999998 C 68.8 105.5 66.6 106.8 64.2 108.3 z" stroke-linecap="round" />
</g>
		<g transform="matrix(1 0 0 1 -23.78 29.34)"  >
<path style="stroke: none; stroke-width: 1; stroke-dasharray: none; stroke-linecap: butt; stroke-dashoffset: 0; stroke-linejoin: miter; stroke-miterlimit: 4; fill: rgb(0,112,172); fill-rule: nonzero; opacity: 1;" vector-effect="non-scaling-stroke"  transform=" translate(-104.22, -157.34)" d="M 79.8 135.2 C 74.8 138.39999999999998 64.7 145.7 61.3 148.7 L 59.4 150.29999999999998 L 61.8 152.99999999999997 C 65.39999999999999 157.09999999999997 72.1 162.79999999999998 78.19999999999999 166.89999999999998 C 94.79999999999998 177.89999999999998 113.89999999999999 183.29999999999998 134.2 182.49999999999997 C 140.79999999999998 182.19999999999996 146.7 181.49999999999997 149 180.79999999999998 C 149.4 180.7 146.8 178.99999999999997 143.1 177.1 C 121.5 165.9 102.19999999999999 151.2 89.5 136.39999999999998 C 87.5 133.99999999999997 85.6 132.09999999999997 85.3 132.09999999999997 C 85 132.1 82.6 133.5 79.8 135.2 z" stroke-linecap="round" />
</g>
</g>
</g>
<g transform="matrix(0 0 0 0 0 0)"  >
<g style=""   >
</g>
</g>
</svg>